<?xml version="1.0" encoding="iso-8859-1"?>
<!-- Generator: Adobe Illustrator 19.0.0, SVG Export Plug-In . SVG Version: 6.00 Build 0)  -->
<svg version="1.1" id="Layer_1" xmlns="http://www.w3.org/2000/svg" xmlns:xlink="http://www.w3.org/1999/xlink" x="0px" y="0px"
	 viewBox="0 0 512 512" style="enable-background:new 0 0 512 512;" xml:space="preserve">
<g>
	<g>
		<g fill="#94e4d4">
			<path d="M480.103,186.334c42.529-42.531,42.529-111.732,0-154.261c-20.602-20.601-47.994-31.947-77.131-31.947
				c-29.136,0-56.529,11.346-77.131,31.947c-0.86,0.861-1.502,1.896-1.91,3.019c-21.459-6.699-44.268-10.309-67.906-10.309
				c-23.637,0-46.446,3.612-67.906,10.309c-0.408-1.124-1.049-2.158-1.91-3.019c-20.601-20.601-47.994-31.947-77.131-31.947
				s-56.529,11.346-77.13,31.947C11.346,52.675,0,80.066,0,109.203c0,29.137,11.346,56.529,31.947,77.131
				c1.348,1.348,3.118,2.181,4.999,2.371c-6.021,20.441-9.268,42.057-9.268,64.422c0,75.76,37.096,143.008,94.066,184.569
				l-15.128,42.297c-4.429,12.379,2.039,26.054,14.425,30.485c2.594,0.926,5.295,1.396,8.026,1.396
				c10.044,0,19.068-6.357,22.453-15.818l12.195-34.094c28.243,12.532,59.474,19.512,92.309,19.512
				c32.835,0,64.067-6.98,92.31-19.512l12.196,34.093c3.384,9.462,12.407,15.819,22.453,15.819c2.727,0,5.427-0.469,8.032-1.398
				c12.379-4.43,18.846-18.106,14.417-30.483l-15.129-42.296c56.972-41.561,94.067-108.81,94.067-184.57
				c0-22.364-3.247-43.982-9.268-64.423C476.927,188.52,478.703,187.732,480.103,186.334z M16.481,109.203
				c0-24.734,9.631-47.988,27.121-65.477c17.488-17.488,40.742-27.12,65.476-27.12c21.968,0,42.766,7.596,59.397,21.548
				l-7.269,7.268c-49.817,22.831-90.054,63.069-112.885,112.884l-10.291,10.292C24.077,151.968,16.481,131.17,16.481,109.203z
				 M136.004,490.505c-1.046,2.925-3.833,4.889-6.935,4.889c-0.837,0-1.673-0.147-2.479-0.435c-3.823-1.368-5.822-5.591-4.454-9.414
				l13.713-38.341c4.232,2.631,8.556,5.127,12.966,7.483L136.004,490.505z M385.471,494.957c-0.814,0.291-1.652,0.437-2.489,0.437
				c-3.102,0-5.888-1.965-6.935-4.889l-12.811-35.817c4.41-2.355,8.733-4.852,12.966-7.483l13.714,38.342
				C391.283,489.369,389.285,493.591,385.471,494.957z M256.025,464.992c-116.822,0-211.865-95.042-211.865-211.866
				c0-116.822,95.042-211.863,211.865-211.863S467.89,136.305,467.89,253.127C467.89,369.95,372.847,464.992,256.025,464.992z
				 M463.731,158.31c-22.831-49.817-63.07-90.055-112.887-112.888l-7.269-7.268c16.631-13.952,37.429-21.548,59.397-21.548
				c24.735,0,47.989,9.632,65.477,27.122c34.14,34.139,35.997,88.526,5.569,124.868L463.731,158.31z"/>
			<path d="M256.025,80.633c-95.115,0-172.496,77.38-172.496,172.494c0,95.115,77.382,172.496,172.496,172.496
				s172.496-77.382,172.496-172.496C428.522,158.013,351.14,80.633,256.025,80.633z M256.025,409.143
				c-86.027,0-156.016-69.988-156.016-156.016c0-86.026,69.988-156.013,156.016-156.013s156.016,69.987,156.016,156.013
				C412.041,339.154,342.052,409.143,256.025,409.143z"/>
			<rect x="371.52" y="244.886" width="30.184" height="16.481"/>
			<path d="M309.237,166.189l-53.214,53.216l-31.538-31.536c-4.504-4.503-10.491-6.982-16.86-6.982s-12.357,2.48-16.862,6.983
				c-9.296,9.297-9.295,24.426,0.002,33.724l48.397,48.396c4.504,4.504,10.492,6.982,16.86,6.982c6.37,0,12.358-2.48,16.862-6.982
				c0.003-0.003,0.007-0.008,0.01-0.011l70.067-70.068c4.504-4.505,6.983-10.493,6.983-16.862c0-6.37-2.481-12.358-6.986-16.863
				C333.663,156.895,318.537,156.895,309.237,166.189z M261.231,258.335c-1.39,1.391-3.239,2.157-5.207,2.157
				c-1.968,0-3.817-0.766-5.207-2.157l-48.396-48.395c-2.872-2.872-2.873-7.546-0.003-10.416c1.392-1.392,3.241-2.158,5.209-2.158
				c1.967,0,3.817,0.766,5.207,2.157l48.397,48.396C264.102,250.791,264.103,255.464,261.231,258.335z M331.307,188.258
				l-54.048,54.048c-1.106-2.177-2.557-4.222-4.374-6.041l-5.208-5.207l53.213-53.215c2.872-2.871,7.546-2.87,10.418-0.001
				c1.391,1.391,2.157,3.239,2.157,5.207C333.465,185.016,332.699,186.865,331.307,188.258z"/>
			<rect x="110.343" y="244.885" width="30.184" height="16.481"/>
			<rect x="247.783" y="368.624" width="16.481" height="30.183"/>
			<rect x="247.785" y="107.446" width="16.481" height="30.185"/>
		</g>
	</g>
</g>
<g>
</g>
<g>
</g>
<g>
</g>
<g>
</g>
<g>
</g>
<g>
</g>
<g>
</g>
<g>
</g>
<g>
</g>
<g>
</g>
<g>
</g>
<g>
</g>
<g>
</g>
<g>
</g>
<g>
</g>
</svg>
